<svg xmlns="http://www.w3.org/2000/svg" width="20" height="20"><mask id="a"><path fill-rule="evenodd" d="M15 2H5a3 3 0 0 0-3 3v10a3 3 0 0 0 3 3h10a3 3 0 0 0 3-3V5a3 3 0 0 0-3-3M5 1a4 4 0 0 0-4 4v10a4 4 0 0 0 4 4h10a4 4 0 0 0 4-4V5a4 4 0 0 0-4-4z" clip-rule="evenodd"/></mask><path d="M5 3h10V1H5zM3 5a2 2 0 0 1 2-2V1a4 4 0 0 0-4 4zm0 10V5H1v10zm2 2a2 2 0 0 1-2-2H1a4 4 0 0 0 4 4zm10 0H5v2h10zm2-2a2 2 0 0 1-2 2v2a4 4 0 0 0 4-4zm0-10v10h2V5zm-2-2a2 2 0 0 1 2 2h2a4 4 0 0 0-4-4zM2 5a3 3 0 0 1 3-3V0a5 5 0 0 0-5 5zm0 10V5H0v10zm3 3a3 3 0 0 1-3-3H0a5 5 0 0 0 5 5zm10 0H5v2h10zm3-3a3 3 0 0 1-3 3v2a5 5 0 0 0 5-5zm0-10v10h2V5zm-3-3a3 3 0 0 1 3 3h2a5 5 0 0 0-5-5zM5 2h10V0H5z" mask="url(#a)"/></svg>